<?xml version="1.0" encoding="UTF-8"?>
<svg width="396px" height="499px" viewBox="0 0 396 499" version="1.1" xmlns="http://www.w3.org/2000/svg" xmlns:xlink="http://www.w3.org/1999/xlink">
    <title>编组</title>
    <g id="页面-1" stroke="none" stroke-width="1" fill="none" fill-rule="evenodd">
        <g id="logo" transform="translate(-0.0002, 0)" fill="#393BFF" fill-rule="nonzero">
            <g id="编组" transform="translate(198.0001, 249.1) scale(-1, 1) rotate(-180) translate(-198.0001, -249.1)translate(0, 0)">
                <path d="M1.54436468e-15,374.1 C1.54436468e-15,239.2 -0.0997705677,241.4 5.60022943,218.7 C10.8002294,198.2 20.3002294,176.9 32.7002294,158.2 C40.1002294,147.1 55.3002294,129.2 57.3002294,129.2 C58.5002294,129.3 116.20023,182.7 116.90023,184.4 C117.00023,184.9 114.80023,187.9 111.80023,191 C99.5002294,204 90.3002294,221.4 84.8002294,242.2 C82.6002294,250.6 82.6002294,251.5 82.3002294,333 L81.9002294,415.2 L89.2002294,415.2 C98.8002294,415.2 292.90023,415.2 304.30023,415.2 L313.00023,415.2 L313.00023,393.7 L313.00023,372.2 L222.30023,372 L131.50023,371.7 L131.50023,347.2 L131.50023,322.7 L204.00023,254.7 C243.90023,217.3 278.60023,184.7 281.00023,182.2 C293.50023,169.6 337.40023,129.7 338.80023,129.7 C341.20023,129.7 354.00023,145 363.20023,158.7 C376.00023,177.9 384.90023,197.9 390.60023,220.4 C393.20023,230.5 396.10023,249.2 395.30023,250.5 C395.10023,250.9 380.00023,251.2 361.90023,251.2 L328.90023,251.2 L309.40023,268.8 C298.70023,278.6 290.10023,287 290.30023,287.6 C290.60023,288.4 306.10023,288.8 343.30023,289 L396.00023,289.2 L396.00023,393.7 L396.00023,498.2 L198.00023,498.2 L1.54436468e-15,498.2 L1.54436468e-15,374.1 Z" id="路径"></path>
                <path d="M186.10023,201.4 L174.70023,190.6 L185.40023,180.7 C191.30023,175.2 196.80023,170.6 197.60023,170.4 C198.40023,170.2 204.00023,174.7 210.10023,180.3 L221.20023,190.7 L209.80023,201.4 C203.60023,207.3 198.30023,212.1 198.00023,212.1 C197.70023,212.1 192.40023,207.3 186.10023,201.4 Z" id="路径"></path>
                <path d="M140.500229,158.6 L129.500229,148.1 L133.500229,144.5 C146.20023,132.9 152.10023,126.9 151.40023,126.3 C150.90023,125.9 146.10023,121.4 140.70023,116.4 C135.40023,111.3 130.60023,107.2 130.10023,107.2 C129.60023,107.2 124.40023,111.7 118.500229,117.2 C112.000229,123.3 107.40023,127 106.70023,126.5 C104.70023,125.3 85.0002294,106.8 85.0002294,106.1 C85.0002294,105.4 106.30023,85.3 156.500229,38.7 C173.000229,23.4 189.000229,8.5 192.10023,5.4 L197.80023,0 L234.10023,33.8 C290.20023,85.9 311.000229,105.5 311.000229,106.2 C311.000229,107 289.40023,127.2 288.60023,127.2 C288.40023,127.2 283.30023,122.7 277.40023,117.2 C271.500229,111.7 266.30023,107.2 265.70023,107.2 C264.000229,107.2 247.20023,123.7 246.40023,126.2 C245.80023,128.3 246.80023,129.7 256.000229,138.5 L266.30023,148.3 L255.500229,158.5 C249.500229,164.1 244.10023,168.7 243.40023,168.7 C242.60023,168.7 237.70023,164.6 232.30023,159.6 C226.90023,154.7 222.000229,150.3 221.30023,149.9 C220.60023,149.5 215.80023,153.3 209.40023,159.2 C203.40023,164.7 198.20023,169.2 197.80023,169.2 C197.40023,169.2 192.40023,164.7 186.60023,159.2 C180.80023,153.7 175.80023,149.2 175.40023,149.2 C175.10023,149.2 170.000229,153.7 164.000229,159.2 C158.10023,164.7 152.90023,169.2 152.40023,169.1 C151.90023,169.1 146.60023,164.4 140.500229,158.6 Z M188.10023,136 L197.40023,127.3 L186.50023,116.9 L175.50023,106.5 L167.00023,114.2 C155.90023,124.4 153.70023,126.8 154.40023,128.1 C154.80023,128.7 159.60023,133.2 165.10023,138.2 C176.60023,148.7 174.10023,148.9 188.10023,136 Z M232.00023,137.2 L242.50023,127.2 L231.50023,116.8 L220.60023,106.5 L209.80023,116.5 C203.90023,122.1 199.00023,126.9 199.00023,127.2 C199.00023,128.1 219.90023,147.2 220.80023,147.2 C221.20023,147.1 226.20023,142.6 232.00023,137.2 Z" id="形状"></path>
            </g>
        </g>
    </g>
</svg>