<svg xmlns="http://www.w3.org/2000/svg" viewBox="0 0 128 128" width="128" height="128">
  <!-- 背景圆形 -->
  <circle cx="64" cy="64" r="60" fill="#ff6b35" stroke="#fff" stroke-width="4"/>
  
  <!-- 下载箭头 -->
  <g fill="#fff">
    <!-- 箭头主体 -->
    <rect x="58" y="30" width="12" height="40" rx="2"/>
    
    <!-- 箭头头部 -->
    <polygon points="64,80 45,60 55,60 64,69 73,60 83,60"/>
  </g>
  
  <!-- 底部平台线 -->
  <rect x="35" y="85" width="58" height="8" rx="4" fill="#fff"/>
  
  <!-- 装饰性元素 -->
  <circle cx="45" cy="45" r="3" fill="#fff" opacity="0.7"/>
  <circle cx="83" cy="45" r="3" fill="#fff" opacity="0.7"/>
  
  <!-- 天猫标识性元素 -->
  <path d="M35 25 Q40 20 45 25 Q50 30 45 35 Q40 30 35 25" fill="#fff" opacity="0.8"/>
  <path d="M83 25 Q88 20 93 25 Q98 30 93 35 Q88 30 83 25" fill="#fff" opacity="0.8"/>
</svg>