<?xml version="1.0" standalone="no"?><!DOCTYPE svg PUBLIC "-//W3C//DTD SVG 1.1//EN" "http://www.w3.org/Graphics/SVG/1.1/DTD/svg11.dtd"><svg t="1748168213565" class="icon" viewBox="0 0 1024 1024" version="1.1" xmlns="http://www.w3.org/2000/svg" p-id="6395" width="32" height="32" xmlns:xlink="http://www.w3.org/1999/xlink"><path d="M200 934.4c-3.2-1.6-4.8-4.8-8-8 1.6 3.2 4.8 6.4 8 8z m-9.6-4.8l-8-8c1.6 3.2 4.8 4.8 8 8zM928 217.6c-6.4-6.4-16-9.6-25.6-9.6h-176V152c0-36.8-30.4-67.2-67.2-67.2H363.2c-36.8 0-67.2 30.4-67.2 67.2V208h-176c-19.2 0-33.6 16-33.6 33.6s14.4 33.6 33.6 33.6h30.4v595.2c0 36.8 30.4 67.2 67.2 67.2h601.6c36.8 0 67.2-30.4 67.2-67.2V276.8h19.2c19.2 0 35.2-16 35.2-33.6-1.6-11.2-6.4-19.2-12.8-25.6z m-566.4-64h299.2V208H361.6V153.6z m456 718.4H216V276.8H816l1.6 595.2zM512 390.4c-19.2 0-33.6 16-33.6 33.6v318.4c0 19.2 16 33.6 33.6 33.6 19.2 0 33.6-16 33.6-33.6V425.6c0-19.2-14.4-35.2-33.6-35.2z m-185.6 0c-19.2 0-33.6 16-33.6 33.6v318.4c0 19.2 16 33.6 33.6 33.6 19.2 0 33.6-16 33.6-33.6V425.6c0-19.2-14.4-35.2-33.6-35.2z m368 0c-19.2 0-33.6 16-33.6 33.6v318.4c0 19.2 16 33.6 33.6 33.6s33.6-16 33.6-33.6V425.6c1.6-19.2-14.4-35.2-33.6-35.2z" fill-opacity=".85" p-id="6396" fill="#000000"></path></svg>