<?xml version="1.0" standalone="no"?><!DOCTYPE svg PUBLIC "-//W3C//DTD SVG 1.1//EN" "http://www.w3.org/Graphics/SVG/1.1/DTD/svg11.dtd"><svg t="1748005634223" class="icon" viewBox="0 0 1024 1024" version="1.1" xmlns="http://www.w3.org/2000/svg" p-id="5263" xmlns:xlink="http://www.w3.org/1999/xlink" width="256" height="256"><path d="M975.647912 1011.263555c-21.904626 21.904626-62.063106 14.603084-91.269274-14.603083L731.046257 839.67732c-73.015419 51.110793-164.284693 80.316961-259.204738 80.316961C219.938323 923.645052 15.49515 719.201879 15.49515 467.298683S219.938323 10.952313 471.841519 10.952313s456.34637 204.443174 456.34637 456.34637c0 116.824671-43.809251 219.046257-113.173899 299.363218l149.681609 149.681609c25.555397 29.206168 32.856939 73.015419 10.952313 94.920045zM471.841519 120.475442c-189.84009 0-346.823241 156.983151-346.823241 346.823241s156.983151 346.823241 346.823241 346.823241 346.823241-156.983151 346.823241-346.823241-156.983151-346.823241-346.823241-346.823241z" p-id="5264"></path></svg>